<svg xmlns="http://www.w3.org/2000/svg" width="375" viewBox="0 0 375 375" height="375" version="1.0"><defs><clipPath id="a"><path d="M 151 166 L 223 166 L 223 202.621094 L 151 202.621094 Z M 151 166"/></clipPath><clipPath id="b"><path d="M 151 111.121094 L 211 111.121094 L 211 175 L 151 175 Z M 151 111.121094"/></clipPath></defs><g clip-path="url(#a)"><path fill="#2E0E36" d="M 186.824219 188.246094 C 171.15625 188.246094 157.597656 179.308594 151.011719 166.296875 C 151 166.296875 151.015625 166.296875 151.003906 166.296875 C 150.890625 186.03125 166.96875 202.066406 186.824219 202.066406 C 206.675781 202.066406 222.757812 186.03125 222.644531 166.296875 C 222.632812 166.296875 222.644531 166.296875 222.632812 166.296875 C 216.050781 179.308594 202.492188 188.246094 186.824219 188.246094 Z M 186.824219 188.246094"/></g><path fill="#5E2D4F" d="M 192.8125 171.160156 C 178.609375 177.734375 162.519531 175.324219 151.011719 166.292969 C 151.003906 166.300781 151.015625 166.289062 151.003906 166.296875 C 159.304688 184.230469 180.703125 192.015625 198.695312 183.683594 C 216.6875 175.355469 224.4375 154.078125 215.933594 136.242188 C 215.921875 136.242188 215.933594 136.242188 215.921875 136.242188 C 215.496094 150.796875 207.011719 164.585938 192.8125 171.160156 Z M 192.8125 171.160156"/><g clip-path="url(#b)"><path fill="#965695" d="M 190.96875 153.175781 C 180.894531 165.089844 165.285156 169.65625 151.011719 166.296875 C 151.007812 166.308594 151.011719 166.296875 151.007812 166.308594 C 166.164062 179.078125 188.871094 177.15625 201.632812 162.058594 C 214.398438 146.957031 212.355469 124.410156 197.039062 111.8125 C 202.863281 125.1875 201.046875 141.253906 190.96875 153.175781 Z M 190.96875 153.175781"/></g><g fill="#0E0D15"><g><g><path d="M 16.703125 0 L 12.546875 0 L 12.546875 -6.34375 L 5.78125 -6.34375 L 5.78125 0 L 1.640625 0 L 1.640625 -16.328125 L 5.78125 -16.328125 L 5.78125 -9.609375 L 12.546875 -9.609375 L 12.546875 -16.328125 L 16.703125 -16.328125 Z M 16.703125 0" transform="translate(118.132 231.52)"/></g></g></g><g fill="#0E0D15"><g><g><path d="M 5.78125 0 L 1.640625 0 L 1.640625 -16.328125 L 5.78125 -16.328125 Z M 5.78125 0" transform="translate(138.85 231.52)"/></g></g></g><g fill="#0E0D15"><g><g><path d="M 19.578125 0 L 15.90625 0 L 15.890625 -10.609375 L 11.96875 -1.640625 L 9.265625 -1.640625 L 5.34375 -10.609375 L 5.34375 0 L 1.640625 0 L 1.640625 -16.359375 L 6.1875 -16.359375 L 10.609375 -6.625 L 15.046875 -16.359375 L 19.578125 -16.359375 Z M 19.578125 0" transform="translate(148.65 231.52)"/></g></g></g><g fill="#0E0D15"><g><g><path d="M 19.578125 0 L 15.90625 0 L 15.890625 -10.609375 L 11.96875 -1.640625 L 9.265625 -1.640625 L 5.34375 -10.609375 L 5.34375 0 L 1.640625 0 L 1.640625 -16.359375 L 6.1875 -16.359375 L 10.609375 -6.625 L 15.046875 -16.359375 L 19.578125 -16.359375 Z M 19.578125 0" transform="translate(172.262 231.52)"/></g></g></g><g fill="#0E0D15"><g><g><path d="M 5.78125 -3.46875 L 12.71875 -3.46875 L 12.71875 0 L 1.640625 0 L 1.640625 -16.328125 L 5.78125 -16.328125 Z M 5.78125 -3.46875" transform="translate(195.874 231.52)"/></g></g></g><g fill="#0E0D15"><g><g><path d="M 5.78125 0 L 1.640625 0 L 1.640625 -16.328125 L 5.78125 -16.328125 Z M 5.78125 0" transform="translate(211.32 231.52)"/></g></g></g><g fill="#0E0D15"><g><g><path d="M 7.90625 -16.515625 C 10.351562 -16.515625 12.5 -15.910156 14.34375 -14.703125 L 12.78125 -11.453125 C 11.925781 -11.953125 11.007812 -12.359375 10.03125 -12.671875 C 9.050781 -12.992188 8.226562 -13.15625 7.5625 -13.15625 C 6.363281 -13.15625 5.765625 -12.757812 5.765625 -11.96875 C 5.765625 -11.457031 6.054688 -11.046875 6.640625 -10.734375 C 7.234375 -10.421875 7.953125 -10.148438 8.796875 -9.921875 C 9.648438 -9.703125 10.5 -9.429688 11.34375 -9.109375 C 12.195312 -8.785156 12.914062 -8.265625 13.5 -7.546875 C 14.09375 -6.835938 14.390625 -5.941406 14.390625 -4.859375 C 14.390625 -3.285156 13.773438 -2.054688 12.546875 -1.171875 C 11.316406 -0.296875 9.753906 0.140625 7.859375 0.140625 C 6.503906 0.140625 5.164062 -0.09375 3.84375 -0.5625 C 2.519531 -1.03125 1.367188 -1.664062 0.390625 -2.46875 L 2 -5.671875 C 2.832031 -4.953125 3.804688 -4.363281 4.921875 -3.90625 C 6.046875 -3.445312 7.039062 -3.21875 7.90625 -3.21875 C 8.570312 -3.21875 9.09375 -3.335938 9.46875 -3.578125 C 9.84375 -3.816406 10.03125 -4.171875 10.03125 -4.640625 C 10.03125 -5.085938 9.816406 -5.460938 9.390625 -5.765625 C 8.960938 -6.078125 8.425781 -6.304688 7.78125 -6.453125 C 7.144531 -6.597656 6.453125 -6.796875 5.703125 -7.046875 C 4.960938 -7.296875 4.273438 -7.566406 3.640625 -7.859375 C 3.003906 -8.160156 2.472656 -8.628906 2.046875 -9.265625 C 1.617188 -9.910156 1.40625 -10.6875 1.40625 -11.59375 C 1.40625 -13.082031 2 -14.273438 3.1875 -15.171875 C 4.375 -16.066406 5.945312 -16.515625 7.90625 -16.515625 Z M 7.90625 -16.515625" transform="translate(221.12 231.52)"/></g></g></g><g fill="#0E0D15"><g><g><path d="M 16.703125 0 L 12.546875 0 L 12.546875 -6.34375 L 5.78125 -6.34375 L 5.78125 0 L 1.640625 0 L 1.640625 -16.328125 L 5.78125 -16.328125 L 5.78125 -9.609375 L 12.546875 -9.609375 L 12.546875 -16.328125 L 16.703125 -16.328125 Z M 16.703125 0" transform="translate(238.526 231.52)"/></g></g></g><g fill="#0E0D15"><g><g><path d="M 5.21875 -4.71875 L 2.09375 -4.71875 L 2.09375 -3.546875 L 4.90625 -3.546875 L 4.90625 -2.375 L 2.09375 -2.375 L 2.09375 -1.1875 L 5.3125 -1.1875 L 5.3125 0 L 0.59375 0 L 0.59375 -5.90625 L 5.21875 -5.90625 Z M 5.21875 -4.71875" transform="translate(114.186 247.874)"/></g></g></g><g fill="#0E0D15"><g><g><path d="M 2.09375 -1.25 L 4.59375 -1.25 L 4.59375 0 L 0.59375 0 L 0.59375 -5.90625 L 2.09375 -5.90625 Z M 2.09375 -1.25" transform="translate(121.413 247.874)"/></g></g></g><g fill="#0E0D15"><g><g><path d="M 2.859375 -5.96875 C 3.742188 -5.96875 4.519531 -5.75 5.1875 -5.3125 L 4.625 -4.140625 C 4.3125 -4.316406 3.976562 -4.460938 3.625 -4.578125 C 3.269531 -4.703125 2.972656 -4.765625 2.734375 -4.765625 C 2.296875 -4.765625 2.078125 -4.617188 2.078125 -4.328125 C 2.078125 -4.140625 2.179688 -3.988281 2.390625 -3.875 C 2.609375 -3.769531 2.867188 -3.675781 3.171875 -3.59375 C 3.484375 -3.507812 3.789062 -3.410156 4.09375 -3.296875 C 4.40625 -3.179688 4.664062 -2.992188 4.875 -2.734375 C 5.09375 -2.472656 5.203125 -2.144531 5.203125 -1.75 C 5.203125 -1.1875 4.976562 -0.742188 4.53125 -0.421875 C 4.09375 -0.109375 3.53125 0.046875 2.84375 0.046875 C 2.351562 0.046875 1.867188 -0.0351562 1.390625 -0.203125 C 0.910156 -0.367188 0.492188 -0.597656 0.140625 -0.890625 L 0.71875 -2.046875 C 1.019531 -1.785156 1.375 -1.570312 1.78125 -1.40625 C 2.1875 -1.25 2.546875 -1.171875 2.859375 -1.171875 C 3.097656 -1.171875 3.285156 -1.210938 3.421875 -1.296875 C 3.554688 -1.378906 3.625 -1.503906 3.625 -1.671875 C 3.625 -1.835938 3.546875 -1.972656 3.390625 -2.078125 C 3.234375 -2.191406 3.039062 -2.273438 2.8125 -2.328125 C 2.582031 -2.378906 2.332031 -2.453125 2.0625 -2.546875 C 1.789062 -2.640625 1.539062 -2.738281 1.3125 -2.84375 C 1.082031 -2.945312 0.890625 -3.113281 0.734375 -3.34375 C 0.578125 -3.582031 0.5 -3.863281 0.5 -4.1875 C 0.5 -4.726562 0.710938 -5.160156 1.140625 -5.484375 C 1.578125 -5.804688 2.148438 -5.96875 2.859375 -5.96875 Z M 2.859375 -5.96875" transform="translate(131.171 247.874)"/></g></g></g><g fill="#0E0D15"><g><g><path d="M 4.515625 -1.09375 L 1.9375 -1.09375 L 1.5 0 L -0.046875 0 L 2.5 -5.90625 L 4.046875 -5.90625 L 6.53125 0 L 4.9375 0 Z M 4.078125 -2.234375 L 3.234375 -4.40625 L 2.375 -2.234375 Z M 4.078125 -2.234375" transform="translate(138.145 247.874)"/></g></g></g><g fill="#0E0D15"><g><g><path d="M 0.59375 -5.90625 L 3.390625 -5.90625 C 4.046875 -5.90625 4.566406 -5.769531 4.953125 -5.5 C 5.347656 -5.238281 5.546875 -4.878906 5.546875 -4.421875 C 5.546875 -4.117188 5.457031 -3.847656 5.28125 -3.609375 C 5.101562 -3.378906 4.859375 -3.21875 4.546875 -3.125 C 4.910156 -3.050781 5.203125 -2.878906 5.421875 -2.609375 C 5.640625 -2.335938 5.75 -2.015625 5.75 -1.640625 C 5.75 -1.140625 5.546875 -0.738281 5.140625 -0.4375 C 4.734375 -0.144531 4.179688 0 3.484375 0 L 0.59375 0 Z M 2.078125 -4.765625 L 2.078125 -3.546875 L 3.296875 -3.546875 C 3.515625 -3.546875 3.6875 -3.597656 3.8125 -3.703125 C 3.945312 -3.816406 4.015625 -3.96875 4.015625 -4.15625 C 4.015625 -4.34375 3.945312 -4.488281 3.8125 -4.59375 C 3.6875 -4.707031 3.515625 -4.765625 3.296875 -4.765625 Z M 2.078125 -2.46875 L 2.078125 -1.15625 L 3.296875 -1.15625 C 3.578125 -1.15625 3.796875 -1.210938 3.953125 -1.328125 C 4.117188 -1.453125 4.203125 -1.617188 4.203125 -1.828125 C 4.203125 -2.023438 4.117188 -2.179688 3.953125 -2.296875 C 3.796875 -2.410156 3.578125 -2.46875 3.296875 -2.46875 Z M 2.078125 -2.46875" transform="translate(146.181 247.874)"/></g></g></g><g fill="#0E0D15"><g><g><path d="M 3.390625 -5.953125 C 4.304688 -5.953125 5.066406 -5.664062 5.671875 -5.09375 C 6.285156 -4.53125 6.59375 -3.820312 6.59375 -2.96875 C 6.59375 -2.101562 6.285156 -1.378906 5.671875 -0.796875 C 5.066406 -0.222656 4.304688 0.0625 3.390625 0.0625 C 2.484375 0.0625 1.722656 -0.222656 1.109375 -0.796875 C 0.503906 -1.367188 0.203125 -2.09375 0.203125 -2.96875 C 0.203125 -3.820312 0.503906 -4.53125 1.109375 -5.09375 C 1.722656 -5.664062 2.484375 -5.953125 3.390625 -5.953125 Z M 3.40625 -4.703125 C 2.945312 -4.703125 2.550781 -4.535156 2.21875 -4.203125 C 1.894531 -3.867188 1.734375 -3.453125 1.734375 -2.953125 C 1.734375 -2.453125 1.894531 -2.03125 2.21875 -1.6875 C 2.550781 -1.351562 2.945312 -1.1875 3.40625 -1.1875 C 3.863281 -1.1875 4.25 -1.351562 4.5625 -1.6875 C 4.882812 -2.03125 5.046875 -2.453125 5.046875 -2.953125 C 5.046875 -3.453125 4.882812 -3.867188 4.5625 -4.203125 C 4.25 -4.535156 3.863281 -4.703125 3.40625 -4.703125 Z M 3.40625 -4.703125" transform="translate(153.754 247.874)"/></g></g></g><g fill="#0E0D15"><g><g><path d="M 4.15625 0 L 3.28125 -1.65625 L 2.09375 -1.65625 L 2.09375 0 L 0.59375 0 L 0.59375 -5.90625 L 3.234375 -5.90625 C 4.015625 -5.90625 4.617188 -5.722656 5.046875 -5.359375 C 5.472656 -5.003906 5.6875 -4.5 5.6875 -3.84375 C 5.6875 -2.9375 5.328125 -2.304688 4.609375 -1.953125 L 5.859375 0 Z M 2.09375 -2.84375 L 3.234375 -2.84375 C 3.554688 -2.84375 3.804688 -2.921875 3.984375 -3.078125 C 4.171875 -3.242188 4.265625 -3.484375 4.265625 -3.796875 C 4.265625 -4.097656 4.171875 -4.328125 3.984375 -4.484375 C 3.804688 -4.640625 3.554688 -4.71875 3.234375 -4.71875 L 2.09375 -4.71875 Z M 2.09375 -2.84375" transform="translate(162.086 247.874)"/></g></g></g><g fill="#0E0D15"><g><g><path d="M 0.59375 -5.90625 L 3.125 -5.90625 C 4.050781 -5.90625 4.804688 -5.628906 5.390625 -5.078125 C 5.972656 -4.535156 6.265625 -3.828125 6.265625 -2.953125 C 6.265625 -2.078125 5.96875 -1.363281 5.375 -0.8125 C 4.789062 -0.269531 4.023438 0 3.078125 0 L 0.59375 0 Z M 2.09375 -4.703125 L 2.09375 -1.203125 L 3.15625 -1.203125 C 3.625 -1.203125 4.003906 -1.363281 4.296875 -1.6875 C 4.585938 -2.007812 4.734375 -2.425781 4.734375 -2.9375 C 4.734375 -3.457031 4.578125 -3.878906 4.265625 -4.203125 C 3.960938 -4.535156 3.570312 -4.703125 3.09375 -4.703125 Z M 2.09375 -4.703125" transform="translate(173.23 247.874)"/></g></g></g><g fill="#0E0D15"><g><g><path d="M 5.21875 -4.71875 L 2.09375 -4.71875 L 2.09375 -3.546875 L 4.90625 -3.546875 L 4.90625 -2.375 L 2.09375 -2.375 L 2.09375 -1.1875 L 5.3125 -1.1875 L 5.3125 0 L 0.59375 0 L 0.59375 -5.90625 L 5.21875 -5.90625 Z M 5.21875 -4.71875" transform="translate(181.24 247.874)"/></g></g></g><g fill="#0E0D15"><g><g><path d="M 2.09375 -1.25 L 4.59375 -1.25 L 4.59375 0 L 0.59375 0 L 0.59375 -5.90625 L 2.09375 -5.90625 Z M 2.09375 -1.25" transform="translate(191.962 247.874)"/></g></g></g><g fill="#0E0D15"><g><g><path d="M 3.390625 -5.953125 C 4.304688 -5.953125 5.066406 -5.664062 5.671875 -5.09375 C 6.285156 -4.53125 6.59375 -3.820312 6.59375 -2.96875 C 6.59375 -2.101562 6.285156 -1.378906 5.671875 -0.796875 C 5.066406 -0.222656 4.304688 0.0625 3.390625 0.0625 C 2.484375 0.0625 1.722656 -0.222656 1.109375 -0.796875 C 0.503906 -1.367188 0.203125 -2.09375 0.203125 -2.96875 C 0.203125 -3.820312 0.503906 -4.53125 1.109375 -5.09375 C 1.722656 -5.664062 2.484375 -5.953125 3.390625 -5.953125 Z M 3.40625 -4.703125 C 2.945312 -4.703125 2.550781 -4.535156 2.21875 -4.203125 C 1.894531 -3.867188 1.734375 -3.453125 1.734375 -2.953125 C 1.734375 -2.453125 1.894531 -2.03125 2.21875 -1.6875 C 2.550781 -1.351562 2.945312 -1.1875 3.40625 -1.1875 C 3.863281 -1.1875 4.25 -1.351562 4.5625 -1.6875 C 4.882812 -2.03125 5.046875 -2.453125 5.046875 -2.953125 C 5.046875 -3.453125 4.882812 -3.867188 4.5625 -4.203125 C 4.25 -4.535156 3.863281 -4.703125 3.40625 -4.703125 Z M 3.40625 -4.703125" transform="translate(198.226 247.874)"/></g></g></g><g fill="#0E0D15"><g><g><path d="M 2.859375 -5.96875 C 3.742188 -5.96875 4.519531 -5.75 5.1875 -5.3125 L 4.625 -4.140625 C 4.3125 -4.316406 3.976562 -4.460938 3.625 -4.578125 C 3.269531 -4.703125 2.972656 -4.765625 2.734375 -4.765625 C 2.296875 -4.765625 2.078125 -4.617188 2.078125 -4.328125 C 2.078125 -4.140625 2.179688 -3.988281 2.390625 -3.875 C 2.609375 -3.769531 2.867188 -3.675781 3.171875 -3.59375 C 3.484375 -3.507812 3.789062 -3.410156 4.09375 -3.296875 C 4.40625 -3.179688 4.664062 -2.992188 4.875 -2.734375 C 5.09375 -2.472656 5.203125 -2.144531 5.203125 -1.75 C 5.203125 -1.1875 4.976562 -0.742188 4.53125 -0.421875 C 4.09375 -0.109375 3.53125 0.046875 2.84375 0.046875 C 2.351562 0.046875 1.867188 -0.0351562 1.390625 -0.203125 C 0.910156 -0.367188 0.492188 -0.597656 0.140625 -0.890625 L 0.71875 -2.046875 C 1.019531 -1.785156 1.375 -1.570312 1.78125 -1.40625 C 2.1875 -1.25 2.546875 -1.171875 2.859375 -1.171875 C 3.097656 -1.171875 3.285156 -1.210938 3.421875 -1.296875 C 3.554688 -1.378906 3.625 -1.503906 3.625 -1.671875 C 3.625 -1.835938 3.546875 -1.972656 3.390625 -2.078125 C 3.234375 -2.191406 3.039062 -2.273438 2.8125 -2.328125 C 2.582031 -2.378906 2.332031 -2.453125 2.0625 -2.546875 C 1.789062 -2.640625 1.539062 -2.738281 1.3125 -2.84375 C 1.082031 -2.945312 0.890625 -3.113281 0.734375 -3.34375 C 0.578125 -3.582031 0.5 -3.863281 0.5 -4.1875 C 0.5 -4.726562 0.710938 -5.160156 1.140625 -5.484375 C 1.578125 -5.804688 2.148438 -5.96875 2.859375 -5.96875 Z M 2.859375 -5.96875" transform="translate(206.558 247.874)"/></g></g></g><g fill="#0E0D15"><g><g><path d="M 0.59375 -5.90625 L 3.125 -5.90625 C 4.050781 -5.90625 4.804688 -5.628906 5.390625 -5.078125 C 5.972656 -4.535156 6.265625 -3.828125 6.265625 -2.953125 C 6.265625 -2.078125 5.96875 -1.363281 5.375 -0.8125 C 4.789062 -0.269531 4.023438 0 3.078125 0 L 0.59375 0 Z M 2.09375 -4.703125 L 2.09375 -1.203125 L 3.15625 -1.203125 C 3.625 -1.203125 4.003906 -1.363281 4.296875 -1.6875 C 4.585938 -2.007812 4.734375 -2.425781 4.734375 -2.9375 C 4.734375 -3.457031 4.578125 -3.878906 4.265625 -4.203125 C 3.960938 -4.535156 3.570312 -4.703125 3.09375 -4.703125 Z M 2.09375 -4.703125" transform="translate(217.026 247.874)"/></g></g></g><g fill="#0E0D15"><g><g><path d="M 2.09375 0 L 0.59375 0 L 0.59375 -5.90625 L 2.09375 -5.90625 Z M 2.09375 0" transform="translate(225.038 247.874)"/></g></g></g><g fill="#0E0D15"><g><g><path d="M 3.390625 -5.953125 C 4.304688 -5.953125 5.066406 -5.664062 5.671875 -5.09375 C 6.285156 -4.53125 6.59375 -3.820312 6.59375 -2.96875 C 6.59375 -2.101562 6.285156 -1.378906 5.671875 -0.796875 C 5.066406 -0.222656 4.304688 0.0625 3.390625 0.0625 C 2.484375 0.0625 1.722656 -0.222656 1.109375 -0.796875 C 0.503906 -1.367188 0.203125 -2.09375 0.203125 -2.96875 C 0.203125 -3.820312 0.503906 -4.53125 1.109375 -5.09375 C 1.722656 -5.664062 2.484375 -5.953125 3.390625 -5.953125 Z M 3.40625 -4.703125 C 2.945312 -4.703125 2.550781 -4.535156 2.21875 -4.203125 C 1.894531 -3.867188 1.734375 -3.453125 1.734375 -2.953125 C 1.734375 -2.453125 1.894531 -2.03125 2.21875 -1.6875 C 2.550781 -1.351562 2.945312 -1.1875 3.40625 -1.1875 C 3.863281 -1.1875 4.25 -1.351562 4.5625 -1.6875 C 4.882812 -2.03125 5.046875 -2.453125 5.046875 -2.953125 C 5.046875 -3.453125 4.882812 -3.867188 4.5625 -4.203125 C 4.25 -4.535156 3.863281 -4.703125 3.40625 -4.703125 Z M 3.40625 -4.703125" transform="translate(229.259 247.874)"/></g></g></g><g fill="#0E0D15"><g><g><path d="M 2.859375 -5.96875 C 3.742188 -5.96875 4.519531 -5.75 5.1875 -5.3125 L 4.625 -4.140625 C 4.3125 -4.316406 3.976562 -4.460938 3.625 -4.578125 C 3.269531 -4.703125 2.972656 -4.765625 2.734375 -4.765625 C 2.296875 -4.765625 2.078125 -4.617188 2.078125 -4.328125 C 2.078125 -4.140625 2.179688 -3.988281 2.390625 -3.875 C 2.609375 -3.769531 2.867188 -3.675781 3.171875 -3.59375 C 3.484375 -3.507812 3.789062 -3.410156 4.09375 -3.296875 C 4.40625 -3.179688 4.664062 -2.992188 4.875 -2.734375 C 5.09375 -2.472656 5.203125 -2.144531 5.203125 -1.75 C 5.203125 -1.1875 4.976562 -0.742188 4.53125 -0.421875 C 4.09375 -0.109375 3.53125 0.046875 2.84375 0.046875 C 2.351562 0.046875 1.867188 -0.0351562 1.390625 -0.203125 C 0.910156 -0.367188 0.492188 -0.597656 0.140625 -0.890625 L 0.71875 -2.046875 C 1.019531 -1.785156 1.375 -1.570312 1.78125 -1.40625 C 2.1875 -1.25 2.546875 -1.171875 2.859375 -1.171875 C 3.097656 -1.171875 3.285156 -1.210938 3.421875 -1.296875 C 3.554688 -1.378906 3.625 -1.503906 3.625 -1.671875 C 3.625 -1.835938 3.546875 -1.972656 3.390625 -2.078125 C 3.234375 -2.191406 3.039062 -2.273438 2.8125 -2.328125 C 2.582031 -2.378906 2.332031 -2.453125 2.0625 -2.546875 C 1.789062 -2.640625 1.539062 -2.738281 1.3125 -2.84375 C 1.082031 -2.945312 0.890625 -3.113281 0.734375 -3.34375 C 0.578125 -3.582031 0.5 -3.863281 0.5 -4.1875 C 0.5 -4.726562 0.710938 -5.160156 1.140625 -5.484375 C 1.578125 -5.804688 2.148438 -5.96875 2.859375 -5.96875 Z M 2.859375 -5.96875" transform="translate(237.591 247.874)"/></g></g></g><g fill="#0E0D15"><g><g><path d="M 5.21875 -4.71875 L 2.09375 -4.71875 L 2.09375 -3.546875 L 4.90625 -3.546875 L 4.90625 -2.375 L 2.09375 -2.375 L 2.09375 -1.1875 L 5.3125 -1.1875 L 5.3125 0 L 0.59375 0 L 0.59375 -5.90625 L 5.21875 -5.90625 Z M 5.21875 -4.71875" transform="translate(244.564 247.874)"/></g></g></g><g fill="#0E0D15"><g><g><path d="M 2.859375 -5.96875 C 3.742188 -5.96875 4.519531 -5.75 5.1875 -5.3125 L 4.625 -4.140625 C 4.3125 -4.316406 3.976562 -4.460938 3.625 -4.578125 C 3.269531 -4.703125 2.972656 -4.765625 2.734375 -4.765625 C 2.296875 -4.765625 2.078125 -4.617188 2.078125 -4.328125 C 2.078125 -4.140625 2.179688 -3.988281 2.390625 -3.875 C 2.609375 -3.769531 2.867188 -3.675781 3.171875 -3.59375 C 3.484375 -3.507812 3.789062 -3.410156 4.09375 -3.296875 C 4.40625 -3.179688 4.664062 -2.992188 4.875 -2.734375 C 5.09375 -2.472656 5.203125 -2.144531 5.203125 -1.75 C 5.203125 -1.1875 4.976562 -0.742188 4.53125 -0.421875 C 4.09375 -0.109375 3.53125 0.046875 2.84375 0.046875 C 2.351562 0.046875 1.867188 -0.0351562 1.390625 -0.203125 C 0.910156 -0.367188 0.492188 -0.597656 0.140625 -0.890625 L 0.71875 -2.046875 C 1.019531 -1.785156 1.375 -1.570312 1.78125 -1.40625 C 2.1875 -1.25 2.546875 -1.171875 2.859375 -1.171875 C 3.097656 -1.171875 3.285156 -1.210938 3.421875 -1.296875 C 3.554688 -1.378906 3.625 -1.503906 3.625 -1.671875 C 3.625 -1.835938 3.546875 -1.972656 3.390625 -2.078125 C 3.234375 -2.191406 3.039062 -2.273438 2.8125 -2.328125 C 2.582031 -2.378906 2.332031 -2.453125 2.0625 -2.546875 C 1.789062 -2.640625 1.539062 -2.738281 1.3125 -2.84375 C 1.082031 -2.945312 0.890625 -3.113281 0.734375 -3.34375 C 0.578125 -3.582031 0.5 -3.863281 0.5 -4.1875 C 0.5 -4.726562 0.710938 -5.160156 1.140625 -5.484375 C 1.578125 -5.804688 2.148438 -5.96875 2.859375 -5.96875 Z M 2.859375 -5.96875" transform="translate(251.79 247.874)"/></g></g></g><g fill="#0E0D15"><g><g><path d="M 0.515625 -1.140625 C 0.640625 -1.273438 0.804688 -1.34375 1.015625 -1.34375 C 1.222656 -1.34375 1.394531 -1.273438 1.53125 -1.140625 C 1.664062 -1.015625 1.734375 -0.847656 1.734375 -0.640625 C 1.734375 -0.429688 1.664062 -0.257812 1.53125 -0.125 C 1.394531 0 1.222656 0.0625 1.015625 0.0625 C 0.804688 0.0625 0.640625 0 0.515625 -0.125 C 0.390625 -0.257812 0.328125 -0.429688 0.328125 -0.640625 C 0.328125 -0.847656 0.390625 -1.015625 0.515625 -1.140625 Z M 0.515625 -1.140625" transform="translate(258.764 247.874)"/></g></g></g></svg>